<svg width="48" height="40" viewBox="0 0 48 40" fill="none" xmlns="http://www.w3.org/2000/svg">
<path fill-rule="evenodd" clip-rule="evenodd" d="M26 37.9991C26 39.1042 25.1123 40 24 40C22.8954 40 22 39.0984 22 37.9991V23.3809C19.6642 25.6224 16.493 27 13 27C9.89515 27 7.04453 25.9116 4.80889 24.0954C5.12206 26.1779 5.49566 28.1595 5.89468 30.0431C6.33374 32.1158 6.8028 33.9313 7.26989 35.4745C7.43157 36.0086 7.8425 37.2193 7.86626 37.2809C8.2634 38.3117 7.74979 39.4692 6.71908 39.8663C5.68838 40.2634 4.53088 39.7498 4.13374 38.7191C3.98747 38.3395 3.74591 37.6392 3.44142 36.6333C2.94199 34.9833 2.44454 33.0579 1.98152 30.8721C1.22886 27.319 0.572632 23.4347 0.209321 19.2176C0.0754705 17.664 0.0154385 16.1608 0.0191165 14.7111C0.00642673 14.4757 0 14.2386 0 14C0 13.8745 0.0115686 13.7516 0.0336979 13.6325C0.112434 10.4268 0.501807 7.49692 1.08616 4.87871C1.47295 3.14569 1.86911 1.91727 2.15261 1.23378C2.5758 0.21349 3.74598 -0.270548 4.76626 0.152646C5.78654 0.575839 6.27058 1.74601 5.84739 2.76629C5.80769 2.86201 5.18688 4.86836 4.99011 5.75002C4.4135 8.33356 4.0392 11.281 4.01612 14.5432C4.29698 19.2609 8.21183 23 13 23C17.9706 23 22 18.9706 22 14C22 12.8955 22.8954 12 24 12C24.5523 12 25.0523 12.2239 25.4142 12.5858C25.7761 12.9478 26 13.4477 26 14C26 18.9706 30.0294 23 35 23C39.9215 23 43.9204 19.0497 43.9988 14.1469C43.9495 11.042 43.5826 8.22852 43.0294 5.75002C42.8326 4.86836 42.2118 2.86201 42.1721 2.76629C41.7489 1.74601 42.2329 0.575839 43.2532 0.152646C44.2735 -0.270548 45.4437 0.21349 45.8669 1.23378C46.1504 1.91727 46.5465 3.14569 46.9333 4.87871C47.5275 7.54076 47.92 10.525 47.9895 13.7938C47.9964 13.8616 48 13.9304 48 14C48 14.0899 47.9991 14.1795 47.9973 14.2689C48.0155 15.8545 47.9577 17.5054 47.8102 19.2176C47.4469 23.4347 46.7906 27.319 46.038 30.8721C45.575 33.0579 45.0775 34.9833 44.5781 36.6333C44.2736 37.6392 44.032 38.3395 43.8858 38.7191C43.4886 39.7498 42.3311 40.2634 41.3004 39.8663C40.2697 39.4692 39.7561 38.3117 40.1532 37.2809C40.177 37.2193 40.5879 36.0086 40.7496 35.4745C41.2167 33.9313 41.6858 32.1158 42.1248 30.0431C42.525 28.154 42.8996 26.1665 43.2133 24.0773C40.9744 25.9043 38.1151 27 35 27C31.507 27 28.3358 25.6224 26 23.3809V37.9991Z" fill="black"/>
</svg>
